<svg width="38" height="44"  xmlns="http://www.w3.org/2000/svg">
<path d="M14.3857 14.625L14.3076 14.3876L14.0708 14.3076L12.4204 13.7498L14.0707 13.1925L14.3074 13.1125L14.3856 12.8752L14.9289 11.2259L15.4715 12.875L15.5496 13.1125L15.7865 13.1925L17.4381 13.75L15.7865 14.3075L15.5496 14.3875L15.4715 14.625L14.9286 16.2755L14.3857 14.625ZM7.03245 19.0512L6.90195 18.75H6.57366H5.42857C4.96766 18.75 4.57143 18.3603 4.57143 17.875V9.625C4.57143 9.14628 4.96967 8.75 5.42857 8.75H6.57366H6.90195L7.03245 8.44877C9.06146 3.76541 13.6465 0.5 19 0.5C24.354 0.5 28.9469 3.7658 30.9673 8.44809L31.0975 8.75H31.4263H32.5714C33.0336 8.75 33.4286 9.14526 33.4286 9.625V17.875C33.4286 18.357 33.0313 18.75 32.5714 18.75H31.4263H31.0975L30.9673 19.0519C28.9469 23.7342 24.354 27 19 27C13.6465 27 9.06146 23.7346 7.03245 19.0512ZM14.0714 39.875C14.0714 39.3973 14.4729 39 14.9286 39C15.3907 39 15.7857 39.3953 15.7857 39.875V43.5H14.0714V39.875ZM22.2143 39.875C22.2143 39.393 22.6115 39 23.0714 39C23.5346 39 23.9286 39.392 23.9286 39.875C23.9286 40.357 23.5313 40.75 23.0714 40.75C22.6115 40.75 22.2143 40.357 22.2143 39.875ZM19 30.75C22.502 30.75 25.8187 29.6238 28.5789 27.6701C33.8054 29.7937 37.5 34.9657 37.5 41.018C37.5 42.3984 36.4026 43.5 35.0601 43.5H27.6429V38.5C27.6429 36.7046 26.2164 35.25 24.4286 35.25H13.5714C11.7836 35.25 10.3571 36.7047 10.3571 38.5V43.5H2.93991C1.5989 43.5 0.5 42.3982 0.5 41.018C0.5 34.9659 4.19857 29.7938 9.42129 27.6709C12.1791 29.6213 15.498 30.75 19 30.75ZM12.8929 7.75C10.4517 7.75 8.32143 9.43605 8.32143 11.6875V13.75C8.32143 18.5746 12.1865 22.5 16.9643 22.5H21.0357C25.8135 22.5 29.6786 18.5746 29.6786 13.75V11.6875C29.6786 9.43418 27.5481 7.75 25.1071 7.75H12.8929Z" fill="#929292" stroke="#929292"/>
</svg>
