<svg width="18" height="18" viewBox="0 0 18 18" fill="none" xmlns="http://www.w3.org/2000/svg">
<path d="M12.8421 18C12.6029 18 12.3736 17.9051 12.2045 17.7362C12.0354 17.5672 11.9404 17.3381 11.9404 17.0992V14.7572C11.9684 14.4878 11.9395 14.2155 11.8557 13.958C11.7718 13.7004 11.6348 13.4633 11.4534 13.2619C11.3412 13.1403 11.2646 12.9901 11.2321 12.8279C11.1997 12.6657 11.2126 12.4977 11.2694 12.3423C11.3262 12.1869 11.4248 12.0501 11.5543 11.947C11.6838 11.8439 11.8392 11.7783 12.0035 11.7576C14.2037 11.4964 16.2326 10.7938 16.2326 6.98353C16.2333 6.27199 16.0231 5.57617 15.6284 4.98381C15.2643 4.43851 15.1313 3.77125 15.2587 3.12822C15.34 2.70875 15.34 2.2776 15.2587 1.85813C14.5835 2.08618 13.9478 2.4174 13.3741 2.83997C13.2657 2.91691 13.1415 2.96893 13.0105 2.99229C12.8796 3.01565 12.7451 3.00977 12.6167 2.97509C10.9893 2.51575 9.26646 2.51575 7.63914 2.97509C7.51073 3.00977 7.37622 3.01565 7.24527 2.99229C7.11431 2.96893 6.99015 2.91691 6.88169 2.83997C6.30453 2.4125 5.66205 2.08095 4.97905 1.85813C4.8933 2.27716 4.8933 2.70919 4.97905 3.12822C5.09726 3.77935 4.95828 4.4509 4.59131 5.00183C4.1984 5.59834 3.98842 6.29649 3.98716 7.01056C3.98716 10.5146 5.6824 11.4514 8.22526 11.7757C8.39166 11.7963 8.549 11.8628 8.67961 11.9679C8.81023 12.0729 8.90895 12.2122 8.96468 12.3702C9.01711 12.5234 9.02719 12.688 8.99386 12.8465C8.96054 13.0051 8.88504 13.1517 8.77531 13.2709C8.59993 13.4582 8.46531 13.6798 8.37995 13.9216C8.29459 14.1635 8.26034 14.4204 8.27937 14.6761V17.0992C8.27937 17.3381 8.18436 17.5672 8.01526 17.7362C7.84615 17.9051 7.61679 18 7.37764 18C7.13849 18 6.90913 17.9051 6.74002 17.7362C6.57092 17.5672 6.47592 17.3381 6.47592 17.0992V16.5858C5.58985 16.6876 4.69233 16.569 3.86324 16.2405C3.03415 15.9121 2.29921 15.3839 1.72383 14.7032C1.42806 14.3757 1.07321 14.1068 0.677825 13.9105C0.562962 13.8809 0.455054 13.829 0.360262 13.7578C0.265471 13.6866 0.185653 13.5974 0.125365 13.4953C0.0650776 13.3933 0.025501 13.2804 0.00889511 13.1631C-0.00771076 13.0457 -0.00102056 12.9263 0.0285835 12.8115C0.0581875 12.6968 0.110126 12.589 0.181433 12.4943C0.25274 12.3996 0.342019 12.3199 0.444173 12.2597C0.546327 12.1994 0.659356 12.1599 0.776805 12.1433C0.894254 12.1267 1.01382 12.1334 1.12869 12.163C1.82234 12.4154 2.44214 12.8364 2.93214 13.388C3.83386 14.2888 4.73559 15.0815 6.44886 14.7572C6.41874 14.2736 6.48936 13.789 6.65626 13.334C4.79871 12.8656 2.14764 11.5324 2.14764 7.02857C2.14526 5.96172 2.45901 4.91803 3.04936 4.02899C3.15901 3.86488 3.20101 3.66481 3.16659 3.47051C2.98437 2.4982 3.08772 1.49398 3.46416 0.579029C3.5153 0.457032 3.59272 0.347784 3.6909 0.259046C3.78908 0.170308 3.90562 0.104258 4.03224 0.0655879C4.33883 -0.0244895 5.43893 -0.204644 7.52192 1.14652C9.20812 0.741172 10.9665 0.741172 12.6527 1.14652C14.7357 -0.204644 15.8358 -0.0334973 16.1334 0.0655879C16.26 0.104258 16.3765 0.170308 16.4747 0.259046C16.5729 0.347784 16.6503 0.457032 16.7015 0.579029C17.0787 1.49695 17.182 2.50426 16.999 3.47952C16.9806 3.56739 16.9799 3.65806 16.9969 3.74622C17.0139 3.83438 17.0484 3.91826 17.0982 3.99296C17.6903 4.88456 18.0041 5.93163 18 7.00155C18 11.5685 15.3669 12.8926 13.4913 13.307C13.6566 13.7903 13.724 14.3017 13.6897 14.8113V17.0992C13.6901 17.329 13.6026 17.5503 13.445 17.7178C13.2874 17.8853 13.0717 17.9862 12.8421 18V18Z" fill="#929292"/>
</svg>
