<svg width="18" height="14" viewBox="0 0 18 14" fill="none" xmlns="http://www.w3.org/2000/svg">
<path d="M15.0559 0.462953L13.9044 1.39078L9.00112 5.1485L4.09788 1.35367L2.94629 0.42584C2.675 0.194388 2.34382 0.0501055 1.99379 0.0108675C1.64376 -0.0283704 1.29026 0.0391606 0.977087 0.205094C0.66391 0.371027 0.404819 0.628071 0.231914 0.94438C0.0590081 1.26069 -0.0201142 1.62236 0.00434939 1.9846V12.7381C0.00434939 13.0728 0.13326 13.3938 0.362722 13.6304C0.592184 13.8671 0.903401 14 1.22791 14H4.09788V6.83715L9.00112 10.632L13.9044 6.83715V14H16.7743C17.0988 14 17.4101 13.8671 17.6395 13.6304C17.869 13.3938 17.9979 13.0728 17.9979 12.7381V1.9846C18.0148 1.62549 17.9302 1.26906 17.7543 0.958621C17.5784 0.648186 17.3189 0.39712 17.0073 0.235941C16.6957 0.0747622 16.3454 0.0104122 15.9989 0.0507131C15.6525 0.091014 15.3249 0.23423 15.0559 0.462953V0.462953Z" fill="#929292"/>
</svg>
