<svg width="22" height="18" viewBox="0 0 22 18" fill="none" xmlns="http://www.w3.org/2000/svg">
<path d="M14.4365 5.4C13.5258 5.39737 12.6235 5.54589 11.7811 5.83707C10.9387 6.12826 10.1727 6.55638 9.52712 7.09695C8.88151 7.63752 8.36888 8.27992 8.01857 8.9874C7.66827 9.69488 7.48715 10.4535 7.4856 11.22V17.1C7.4856 17.3387 7.59826 17.5676 7.79881 17.7364C7.99936 17.9052 8.27135 18 8.55497 18H11.0502C11.3338 18 11.6058 17.9052 11.8063 17.7364C12.0069 17.5676 12.1196 17.3387 12.1196 17.1V11.22C12.1193 10.9474 12.1874 10.6778 12.3192 10.4288C12.4511 10.1798 12.6438 9.95704 12.8848 9.77494C13.1259 9.59284 13.4098 9.45554 13.7181 9.37198C14.0264 9.28842 14.3522 9.26049 14.6742 9.29C15.2516 9.35121 15.7823 9.58866 16.1656 9.95731C16.5489 10.326 16.7581 10.8002 16.7535 11.29V17.1C16.7535 17.3387 16.8662 17.5676 17.0667 17.7364C17.2673 17.9052 17.5393 18 17.8229 18H20.3181C20.6017 18 20.8737 17.9052 21.0743 17.7364C21.2748 17.5676 21.3875 17.3387 21.3875 17.1V11.22C21.3859 10.4535 21.2048 9.69488 20.8545 8.9874C20.5042 8.27992 19.9916 7.63752 19.3459 7.09695C18.7003 6.55638 17.9344 6.12826 17.092 5.83707C16.2496 5.54589 15.3472 5.39737 14.4365 5.4Z" fill="#929292"/>
<path d="M4.2775 6.29999H1.06938C0.478776 6.29999 0 6.70293 0 7.19999V17.1C0 17.597 0.478776 18 1.06938 18H4.2775C4.8681 18 5.34688 17.597 5.34688 17.1V7.19999C5.34688 6.70293 4.8681 6.29999 4.2775 6.29999Z" fill="#929292"/>
<path d="M2.67344 4.5C4.14994 4.5 5.34688 3.49264 5.34688 2.25C5.34688 1.00736 4.14994 0 2.67344 0C1.19694 0 0 1.00736 0 2.25C0 3.49264 1.19694 4.5 2.67344 4.5Z" fill="#929292"/>
</svg>
