<svg width="31" height="31" viewBox="0 0 31 31" fill="none" xmlns="http://www.w3.org/2000/svg">
<path d="M5.8125 9.6875C5.8125 7.11822 6.83314 4.65416 8.6499 2.8374C10.4667 1.02064 12.9307 0 15.5 0C18.0693 0 20.5333 1.02064 22.3501 2.8374C24.1669 4.65416 25.1875 7.11822 25.1875 9.6875V21.3125C25.1875 23.8818 24.1669 26.3458 22.3501 28.1626C20.5333 29.9794 18.0693 31 15.5 31C12.9307 31 10.4667 29.9794 8.6499 28.1626C6.83314 26.3458 5.8125 23.8818 5.8125 21.3125V9.6875ZM16.4688 6.78125C16.4688 6.52432 16.3667 6.27792 16.185 6.09624C16.0033 5.91456 15.7569 5.8125 15.5 5.8125C15.2431 5.8125 14.9967 5.91456 14.815 6.09624C14.6333 6.27792 14.5312 6.52432 14.5312 6.78125V10.6562C14.5312 10.9132 14.6333 11.1596 14.815 11.3413C14.9967 11.5229 15.2431 11.625 15.5 11.625C15.7569 11.625 16.0033 11.5229 16.185 11.3413C16.3667 11.1596 16.4688 10.9132 16.4688 10.6562V6.78125Z" fill="#B8CCE0"/>
</svg>
