<svg width="30" height="30" viewBox="0 0 30 30" fill="none" xmlns="http://www.w3.org/2000/svg">
<path d="M26.4141 12.9492L6.62109 1.875C6.20613 1.63656 5.72785 1.53156 5.25117 1.57426C4.77449 1.61696 4.32249 1.80528 3.95651 2.11368C3.59053 2.42207 3.3283 2.8356 3.2054 3.29814C3.0825 3.76068 3.10489 4.24984 3.26952 4.69922L6.94921 15L3.26952 25.3008C3.10535 25.7494 3.08365 26.2378 3.20739 26.6992C3.33114 27.1606 3.5943 27.5726 3.96093 27.8789C4.38457 28.2342 4.91972 28.4292 5.47265 28.4297C5.87563 28.4312 6.27184 28.326 6.62109 28.125L26.4141 17.0508C26.7773 16.8456 27.0795 16.5475 27.2898 16.1872C27.5 15.8269 27.6108 15.4172 27.6108 15C27.6108 14.5828 27.5 14.1731 27.2898 13.8128C27.0795 13.4524 26.7773 13.1544 26.4141 12.9492V12.9492ZM6.33984 25.0664L9.43359 16.4062H15.9375C16.3105 16.4062 16.6681 16.2581 16.9319 15.9944C17.1956 15.7306 17.3437 15.373 17.3437 15C17.3437 14.627 17.1956 14.2694 16.9319 14.0056C16.6681 13.7419 16.3105 13.5937 15.9375 13.5937H9.43359L6.33984 4.93359L24.3047 15L6.33984 25.0664Z" fill="#11B1F5"/>
</svg>
