<svg width="100" height="100" viewBox="0 0 100 100" fill="none" xmlns="http://www.w3.org/2000/svg">
<mask id="mask0_92_23" style="mask-type:alpha" maskUnits="userSpaceOnUse" x="10" y="10" width="80" height="80">
<path d="M29.1667 87.5H70.8333M45.8333 12.5H18.75C17.0924 12.5 15.5027 13.1585 14.3306 14.3306C13.1585 15.5027 12.5 17.0924 12.5 18.75V64.5833C12.5 66.2409 13.1585 67.8306 14.3306 69.0027C15.5027 70.1748 17.0924 70.8333 18.75 70.8333H81.25C82.9076 70.8333 84.4973 70.1748 85.6694 69.0027C86.8415 67.8306 87.5 66.2409 87.5 64.5833V45.8333L45.8333 12.5ZM50 70.8333V87.5V70.8333Z" stroke="white" stroke-width="4" stroke-linecap="round" stroke-linejoin="round"/>
<path d="M69.375 12.5001C65.5792 12.5001 62.5 15.4897 62.5 19.1772C62.5 25.8522 70.625 31.9209 75 33.3334C79.375 31.9209 87.5 25.8542 87.5 19.1772C87.5 15.4897 84.4229 12.5001 80.625 12.5001C79.5299 12.4949 78.4491 12.7493 77.4714 13.2426C76.4936 13.7358 75.6467 14.4538 75 15.3376C74.3533 14.4538 73.5064 13.7358 72.5286 13.2426C71.5509 12.7493 70.4701 12.4949 69.375 12.5001Z" fill="#555555" stroke="white" stroke-width="4" stroke-linecap="round" stroke-linejoin="round"/>
</mask>
<g mask="url(#mask0_92_23)">
<path d="M0 0H100V100H0V0Z" fill="black"/>
</g>
</svg>
