<svg width="25" height="599" viewBox="0 0 25 599" fill="none" xmlns="http://www.w3.org/2000/svg">
<path d="M3.76 6.76C3.76 5.81333 3.93333 4.93333 4.28 4.12C4.62667 3.32 5.10667 2.62667 5.72 2.04C6.34667 1.46667 7.07333 1.04667 7.9 0.78L8.88 3.04C8.02667 3.4 7.35333 3.92 6.86 4.6C6.38 5.28 6.14 6.04667 6.14 6.9C6.14 7.38 6.21333 7.79333 6.36 8.14C6.52 8.5 6.73333 8.77333 7 8.96C7.26667 9.16 7.58667 9.26 7.96 9.26C8.4 9.26 8.76 9.12667 9.04 8.86C9.33333 8.60667 9.56 8.22 9.72 7.7L10.64 4.84C11 3.68 11.54 2.80667 12.26 2.22C12.98 1.63333 13.8267 1.34 14.8 1.34C15.6533 1.34 16.4067 1.54667 17.06 1.96C17.7133 2.38667 18.22 2.97333 18.58 3.72C18.9533 4.48 19.14 5.34667 19.14 6.32C19.14 7.21333 18.98 8.03333 18.66 8.78C18.3533 9.52667 17.92 10.1667 17.36 10.7C16.8133 11.2467 16.1667 11.6533 15.42 11.92L14.42 9.68C15.1667 9.38667 15.74 8.94667 16.14 8.36C16.5533 7.77333 16.76 7.09333 16.76 6.32C16.76 5.86667 16.68 5.46667 16.52 5.12C16.3733 4.77333 16.16 4.5 15.88 4.3C15.6133 4.11333 15.2933 4.02 14.92 4.02C14.5067 4.02 14.14 4.15333 13.82 4.42C13.5133 4.68667 13.2733 5.09333 13.1 5.64L12.24 8.38C11.8533 9.56667 11.32 10.4533 10.64 11.04C9.96 11.64 9.12 11.94 8.12 11.94C7.26667 11.94 6.51333 11.72 5.86 11.28C5.20667 10.84 4.69333 10.2333 4.32 9.46C3.94667 8.68667 3.76 7.78667 3.76 6.76ZM3.76 21.3892C3.76 20.3226 3.95333 19.3359 4.34 18.4292C4.72667 17.5359 5.26667 16.7492 5.96 16.0692C6.65333 15.4026 7.46667 14.8826 8.4 14.5092C9.33333 14.1359 10.3533 13.9492 11.46 13.9492C12.5667 13.9492 13.5867 14.1292 14.52 14.4892C15.4667 14.8626 16.28 15.3826 16.96 16.0492C17.6533 16.7292 18.1867 17.5226 18.56 18.4292C18.9467 19.3359 19.14 20.3226 19.14 21.3892C19.14 22.4559 18.96 23.4092 18.6 24.2492C18.24 25.1026 17.76 25.8226 17.16 26.4092C16.5733 26.9959 15.9267 27.4159 15.22 27.6692L14.08 25.2292C14.8267 24.9492 15.44 24.4759 15.92 23.8092C16.4133 23.1426 16.66 22.3359 16.66 21.3892C16.66 20.4559 16.44 19.6292 16 18.9092C15.56 18.2026 14.9533 17.6492 14.18 17.2492C13.4067 16.8626 12.5 16.6692 11.46 16.6692C10.42 16.6692 9.50667 16.8626 8.72 17.2492C7.94667 17.6492 7.34 18.2026 6.9 18.9092C6.46 19.6292 6.24 20.4559 6.24 21.3892C6.24 22.3359 6.48 23.1426 6.96 23.8092C7.45333 24.4759 8.07333 24.9492 8.82 25.2292L7.68 27.6692C6.97333 27.4159 6.32 26.9959 5.72 26.4092C5.13333 25.8226 4.66 25.1026 4.3 24.2492C3.94 23.4092 3.76 22.4559 3.76 21.3892ZM4 29.8775L18.9 29.8775V35.4175C18.9 36.4308 18.7133 37.3242 18.34 38.0975C17.98 38.8842 17.4467 39.4975 16.74 39.9375C16.0467 40.3775 15.2 40.5975 14.2 40.5975C13.1733 40.5975 12.3 40.3508 11.58 39.8575C10.86 39.3775 10.3267 38.7242 9.98 37.8975L4 41.3175V38.2375L10.54 34.5775L9.5 36.3375V32.5975H4V29.8775ZM11.9 32.5975V35.4575C11.9 35.9508 11.9933 36.3775 12.18 36.7375C12.38 37.0975 12.6533 37.3775 13 37.5775C13.3467 37.7775 13.7467 37.8775 14.2 37.8775C14.6667 37.8775 15.0667 37.7775 15.4 37.5775C15.7467 37.3775 16.0133 37.0975 16.2 36.7375C16.4 36.3775 16.5 35.9508 16.5 35.4575V32.5975H11.9ZM3.76 50.4402C3.76 49.3468 3.95333 48.3268 4.34 47.3802C4.72667 46.4335 5.26667 45.6068 5.96 44.9002C6.65333 44.1935 7.46667 43.6402 8.4 43.2402C9.34667 42.8535 10.3667 42.6602 11.46 42.6602C12.5667 42.6602 13.5867 42.8535 14.52 43.2402C15.4533 43.6268 16.2667 44.1735 16.96 44.8802C17.6533 45.5868 18.1867 46.4135 18.56 47.3602C18.9467 48.3068 19.14 49.3335 19.14 50.4402C19.14 51.5468 18.9467 52.5735 18.56 53.5202C18.1733 54.4668 17.6333 55.2935 16.94 56.0002C16.26 56.7068 15.4533 57.2535 14.52 57.6402C13.5867 58.0402 12.5667 58.2402 11.46 58.2402C10.3667 58.2402 9.34667 58.0402 8.4 57.6402C7.46667 57.2402 6.65333 56.6868 5.96 55.9802C5.26667 55.2735 4.72667 54.4468 4.34 53.5002C3.95333 52.5668 3.76 51.5468 3.76 50.4402ZM6.24 50.4402C6.24 51.1735 6.36667 51.8468 6.62 52.4602C6.88667 53.0735 7.25333 53.6068 7.72 54.0602C8.18667 54.5268 8.74 54.8802 9.38 55.1202C10.02 55.3735 10.7133 55.5002 11.46 55.5002C12.2067 55.5002 12.8933 55.3735 13.52 55.1202C14.16 54.8802 14.7133 54.5268 15.18 54.0602C15.66 53.6068 16.0267 53.0735 16.28 52.4602C16.5333 51.8468 16.66 51.1735 16.66 50.4402C16.66 49.7202 16.5333 49.0535 16.28 48.4402C16.0267 47.8268 15.66 47.2868 15.18 46.8202C14.7133 46.3668 14.16 46.0135 13.52 45.7602C12.8933 45.5068 12.2067 45.3802 11.46 45.3802C10.7133 45.3802 10.02 45.5068 9.38 45.7602C8.74 46.0135 8.18667 46.3668 7.72 46.8202C7.25333 47.2868 6.88667 47.8268 6.62 48.4402C6.36667 49.0535 6.24 49.7202 6.24 50.4402ZM4 60.6587H18.9V63.3787H6.4V69.7587H4V60.6587ZM4 71.5181H18.9V74.2381H6.4L6.4 80.6181H4L4 71.5181ZM4 82.3775H18.9L18.9 87.2375C18.9 88.8108 18.58 90.1775 17.94 91.3375C17.3133 92.5108 16.44 93.4175 15.32 94.0575C14.2133 94.6975 12.9267 95.0175 11.46 95.0175C10.0067 95.0175 8.71333 94.6975 7.58 94.0575C6.46 93.4175 5.58 92.5108 4.94 91.3375C4.31333 90.1775 4 88.8108 4 87.2375V82.3775ZM6.4 85.0975V87.2975C6.4 88.3108 6.60667 89.1842 7.02 89.9175C7.44667 90.6642 8.03333 91.2442 8.78 91.6575C9.54 92.0708 10.4333 92.2775 11.46 92.2775C12.5 92.2775 13.3933 92.0708 14.14 91.6575C14.8867 91.2442 15.4667 90.6642 15.88 89.9175C16.2933 89.1842 16.5 88.3108 16.5 87.2975V85.0975H6.4ZM3.76 104.522C3.76 103.429 3.95333 102.409 4.34 101.462C4.72667 100.516 5.26667 99.6888 5.96 98.9822C6.65333 98.2755 7.46667 97.7222 8.4 97.3222C9.34667 96.9355 10.3667 96.7422 11.46 96.7422C12.5667 96.7422 13.5867 96.9355 14.52 97.3222C15.4533 97.7088 16.2667 98.2555 16.96 98.9622C17.6533 99.6688 18.1867 100.496 18.56 101.442C18.9467 102.389 19.14 103.416 19.14 104.522C19.14 105.629 18.9467 106.656 18.56 107.602C18.1733 108.549 17.6333 109.376 16.94 110.082C16.26 110.789 15.4533 111.336 14.52 111.722C13.5867 112.122 12.5667 112.322 11.46 112.322C10.3667 112.322 9.34667 112.122 8.4 111.722C7.46667 111.322 6.65333 110.769 5.96 110.062C5.26667 109.356 4.72667 108.529 4.34 107.582C3.95333 106.649 3.76 105.629 3.76 104.522ZM6.24 104.522C6.24 105.256 6.36667 105.929 6.62 106.542C6.88667 107.156 7.25333 107.689 7.72 108.142C8.18667 108.609 8.74 108.962 9.38 109.202C10.02 109.456 10.7133 109.582 11.46 109.582C12.2067 109.582 12.8933 109.456 13.52 109.202C14.16 108.962 14.7133 108.609 15.18 108.142C15.66 107.689 16.0267 107.156 16.28 106.542C16.5333 105.929 16.66 105.256 16.66 104.522C16.66 103.802 16.5333 103.136 16.28 102.522C16.0267 101.909 15.66 101.369 15.18 100.902C14.7133 100.449 14.16 100.096 13.52 99.8422C12.8933 99.5888 12.2067 99.4622 11.46 99.4622C10.7133 99.4622 10.02 99.5888 9.38 99.8422C8.74 100.096 8.18667 100.449 7.72 100.902C7.25333 101.369 6.88667 101.909 6.62 102.522C6.36667 103.136 6.24 103.802 6.24 104.522ZM4 117.13L18.9 113.13V116.05L6.2 119.19V118.43L18.9 121.71V124.53L6.2 127.79V127.03L18.9 130.17V133.09L4 129.09V125.97L16.36 122.67V123.55L4 120.25V117.13ZM4 134.741H18.9V136.861L7.86 145.061L7.64 143.961H18.9V146.681H4V144.541L15.12 136.461L15.34 137.461H4V134.741Z" fill="#834AD6"/>
<line x1="13" y1="182" x2="13" y2="599" stroke="#5C63AB" stroke-width="2"/>
</svg>
