<svg width="100" height="100" viewBox="0 0 100 100" fill="none" xmlns="http://www.w3.org/2000/svg">
<path d="M58.3333 37.4999H41.6666C40.5616 37.4999 39.5018 37.9389 38.7204 38.7203C37.939 39.5017 37.5 40.5615 37.5 41.6666V58.3333C37.5 59.4383 37.939 60.4981 38.7204 61.2795C39.5018 62.0609 40.5616 62.4999 41.6666 62.4999H58.3333C59.4384 62.4999 60.4982 62.0609 61.2796 61.2795C62.061 60.4981 62.5 59.4383 62.5 58.3333V41.6666C62.5 40.5615 62.061 39.5017 61.2796 38.7203C60.4982 37.9389 59.4384 37.4999 58.3333 37.4999ZM54.1666 54.1666H45.8333V45.8333H54.1666V54.1666ZM87.5 54.1666C88.605 54.1666 89.6649 53.7276 90.4463 52.9462C91.2277 52.1648 91.6666 51.105 91.6666 49.9999C91.6666 48.8948 91.2277 47.835 90.4463 47.0536C89.6649 46.2722 88.605 45.8333 87.5 45.8333H79.1666V37.4999H87.5C88.605 37.4999 89.6649 37.0609 90.4463 36.2795C91.2277 35.4981 91.6666 34.4383 91.6666 33.3333C91.6666 32.2282 91.2277 31.1684 90.4463 30.387C89.6649 29.6056 88.605 29.1666 87.5 29.1666H78.4166C77.7945 27.4191 76.7912 25.832 75.4796 24.5203C74.1679 23.2087 72.5808 22.2054 70.8333 21.5833V12.4999C70.8333 11.3948 70.3943 10.335 69.6129 9.55364C68.8315 8.77224 67.7717 8.33325 66.6666 8.33325C65.5616 8.33325 64.5018 8.77224 63.7204 9.55364C62.939 10.335 62.5 11.3948 62.5 12.4999V20.8333H54.1666V12.4999C54.1666 11.3948 53.7277 10.335 52.9463 9.55364C52.1649 8.77224 51.105 8.33325 50 8.33325C48.8949 8.33325 47.8351 8.77224 47.0537 9.55364C46.2723 10.335 45.8333 11.3948 45.8333 12.4999V20.8333H37.5V12.4999C37.5 11.3948 37.061 10.335 36.2796 9.55364C35.4982 8.77224 34.4384 8.33325 33.3333 8.33325C32.2282 8.33325 31.1684 8.77224 30.387 9.55364C29.6056 10.335 29.1666 11.3948 29.1666 12.4999V21.5833C27.4192 22.2054 25.832 23.2087 24.5204 24.5203C23.2088 25.832 22.2055 27.4191 21.5833 29.1666H12.5C11.3949 29.1666 10.3351 29.6056 9.5537 30.387C8.7723 31.1684 8.33331 32.2282 8.33331 33.3333C8.33331 34.4383 8.7723 35.4981 9.5537 36.2795C10.3351 37.0609 11.3949 37.4999 12.5 37.4999H20.8333V45.8333H12.5C11.3949 45.8333 10.3351 46.2722 9.5537 47.0536C8.7723 47.835 8.33331 48.8948 8.33331 49.9999C8.33331 51.105 8.7723 52.1648 9.5537 52.9462C10.3351 53.7276 11.3949 54.1666 12.5 54.1666H20.8333V62.4999H12.5C11.3949 62.4999 10.3351 62.9389 9.5537 63.7203C8.7723 64.5017 8.33331 65.5615 8.33331 66.6666C8.33331 67.7717 8.7723 68.8315 9.5537 69.6129C10.3351 70.3943 11.3949 70.8332 12.5 70.8332H21.5833C22.2055 72.5807 23.2088 74.1679 24.5204 75.4795C25.832 76.7911 27.4192 77.7944 29.1666 78.4166V87.4999C29.1666 88.605 29.6056 89.6648 30.387 90.4462C31.1684 91.2276 32.2282 91.6666 33.3333 91.6666C34.4384 91.6666 35.4982 91.2276 36.2796 90.4462C37.061 89.6648 37.5 88.605 37.5 87.4999V79.1666H45.8333V87.4999C45.8333 88.605 46.2723 89.6648 47.0537 90.4462C47.8351 91.2276 48.8949 91.6666 50 91.6666C51.105 91.6666 52.1649 91.2276 52.9463 90.4462C53.7277 89.6648 54.1666 88.605 54.1666 87.4999V79.1666H62.5V87.4999C62.5 88.605 62.939 89.6648 63.7204 90.4462C64.5018 91.2276 65.5616 91.6666 66.6666 91.6666C67.7717 91.6666 68.8315 91.2276 69.6129 90.4462C70.3943 89.6648 70.8333 88.605 70.8333 87.4999V78.4166C72.5808 77.7944 74.1679 76.7911 75.4796 75.4795C76.7912 74.1679 77.7945 72.5807 78.4166 70.8332H87.5C88.605 70.8332 89.6649 70.3943 90.4463 69.6129C91.2277 68.8315 91.6666 67.7717 91.6666 66.6666C91.6666 65.5615 91.2277 64.5017 90.4463 63.7203C89.6649 62.9389 88.605 62.4999 87.5 62.4999H79.1666V54.1666H87.5ZM70.8333 66.6666C70.8333 67.7717 70.3943 68.8315 69.6129 69.6129C68.8315 70.3943 67.7717 70.8332 66.6666 70.8332H33.3333C32.2282 70.8332 31.1684 70.3943 30.387 69.6129C29.6056 68.8315 29.1666 67.7717 29.1666 66.6666V33.3333C29.1666 32.2282 29.6056 31.1684 30.387 30.387C31.1684 29.6056 32.2282 29.1666 33.3333 29.1666H66.6666C67.7717 29.1666 68.8315 29.6056 69.6129 30.387C70.3943 31.1684 70.8333 32.2282 70.8333 33.3333V66.6666Z" fill="black"/>
</svg>
