<svg width="100" height="100" viewBox="0 0 100 100" fill="none" xmlns="http://www.w3.org/2000/svg">
<g filter="url(#filter0_d_216_49)">
<rect x="10" y="10" width="60" height="60" rx="30" fill="url(#paint0_linear_216_49)"/>
<g filter="url(#filter1_f_216_49)">
<rect x="10.7793" y="10.7792" width="58.4416" height="58.4416" rx="29.2208" fill="url(#paint1_linear_216_49)"/>
<rect x="11.0293" y="11.0292" width="57.9416" height="57.9416" rx="28.9708" stroke="url(#paint2_linear_216_49)" stroke-width="0.5"/>
</g>
<g filter="url(#filter2_f_216_49)">
<path d="M31.7533 62.987C35.1585 62.987 37.9221 60.2234 37.9221 56.8182V50.6494H31.7533C28.3481 50.6494 25.5845 53.413 25.5845 56.8182C25.5845 60.2234 28.3481 62.987 31.7533 62.987Z" fill="black"/>
<path d="M25.5845 44.4805C25.5845 41.0753 28.3481 38.3117 31.7533 38.3117H37.9221V50.6493H31.7533C28.3481 50.6493 25.5845 47.8857 25.5845 44.4805Z" fill="black"/>
<path d="M25.5845 32.1429C25.5845 28.7377 28.3481 25.974 31.7533 25.974H37.9221V38.3117H31.7533C28.3481 38.3117 25.5845 35.5481 25.5845 32.1429Z" fill="black"/>
<path d="M37.9221 25.974H44.0909C47.4961 25.974 50.2598 28.7377 50.2598 32.1429C50.2598 35.5481 47.4961 38.3117 44.0909 38.3117H37.9221V25.974Z" fill="black"/>
<path d="M50.2598 44.4805C50.2598 47.8857 47.4961 50.6493 44.0909 50.6493C40.6858 50.6493 37.9221 47.8857 37.9221 44.4805C37.9221 41.0753 40.6858 38.3117 44.0909 38.3117C47.4961 38.3117 50.2598 41.0753 50.2598 44.4805Z" fill="black"/>
</g>
<path d="M35.2597 60.2598C38.6648 60.2598 41.4285 57.4961 41.4285 54.0909V47.9221H35.2597C31.8545 47.9221 29.0908 50.6858 29.0908 54.0909C29.0908 57.4961 31.8545 60.2598 35.2597 60.2598Z" fill="#0ACF83"/>
<path d="M29.0908 41.7532C29.0908 38.348 31.8545 35.5844 35.2597 35.5844H41.4285V47.9221H35.2597C31.8545 47.9221 29.0908 45.1584 29.0908 41.7532Z" fill="#A259FF"/>
<path d="M29.0908 29.4156C29.0908 26.0104 31.8545 23.2468 35.2597 23.2468H41.4285V35.5844H35.2597C31.8545 35.5844 29.0908 32.8208 29.0908 29.4156Z" fill="#F24E1E"/>
<path d="M41.4287 23.2468H47.5975C51.0027 23.2468 53.7664 26.0104 53.7664 29.4156C53.7664 32.8208 51.0027 35.5844 47.5975 35.5844H41.4287V23.2468Z" fill="#FF7262"/>
<path d="M53.7664 41.7532C53.7664 45.1584 51.0027 47.9221 47.5975 47.9221C44.1923 47.9221 41.4287 45.1584 41.4287 41.7532C41.4287 38.348 44.1923 35.5844 47.5975 35.5844C51.0027 35.5844 53.7664 38.348 53.7664 41.7532Z" fill="#1ABCFE"/>
</g>
<defs>
<filter id="filter0_d_216_49" x="0" y="0" width="100" height="100" filterUnits="userSpaceOnUse" color-interpolation-filters="sRGB">
<feFlood flood-opacity="0" result="BackgroundImageFix"/>
<feColorMatrix in="SourceAlpha" type="matrix" values="0 0 0 0 0 0 0 0 0 0 0 0 0 0 0 0 0 0 127 0" result="hardAlpha"/>
<feOffset dx="10" dy="10"/>
<feGaussianBlur stdDeviation="10"/>
<feComposite in2="hardAlpha" operator="out"/>
<feColorMatrix type="matrix" values="0 0 0 0 0 0 0 0 0 0 0 0 0 0 0 0 0 0 0.56 0"/>
<feBlend mode="normal" in2="BackgroundImageFix" result="effect1_dropShadow_216_49"/>
<feBlend mode="normal" in="SourceGraphic" in2="effect1_dropShadow_216_49" result="shape"/>
</filter>
<filter id="filter1_f_216_49" x="5.7793" y="5.77924" width="68.4417" height="68.4416" filterUnits="userSpaceOnUse" color-interpolation-filters="sRGB">
<feFlood flood-opacity="0" result="BackgroundImageFix"/>
<feBlend mode="normal" in="SourceGraphic" in2="BackgroundImageFix" result="shape"/>
<feGaussianBlur stdDeviation="2.5" result="effect1_foregroundBlur_216_49"/>
</filter>
<filter id="filter2_f_216_49" x="10.5845" y="10.974" width="54.6753" height="67.013" filterUnits="userSpaceOnUse" color-interpolation-filters="sRGB">
<feFlood flood-opacity="0" result="BackgroundImageFix"/>
<feBlend mode="normal" in="SourceGraphic" in2="BackgroundImageFix" result="shape"/>
<feGaussianBlur stdDeviation="7.5" result="effect1_foregroundBlur_216_49"/>
</filter>
<linearGradient id="paint0_linear_216_49" x1="38.8312" y1="68.4416" x2="40" y2="13.3117" gradientUnits="userSpaceOnUse">
<stop/>
<stop offset="1" stop-color="#959595"/>
</linearGradient>
<linearGradient id="paint1_linear_216_49" x1="40.0001" y1="17.2078" x2="40.0001" y2="62.7922" gradientUnits="userSpaceOnUse">
<stop stop-color="#353535" stop-opacity="0.69"/>
<stop offset="1" stop-color="#2C2C2C"/>
</linearGradient>
<linearGradient id="paint2_linear_216_49" x1="40.0001" y1="10.7792" x2="40.0001" y2="69.2208" gradientUnits="userSpaceOnUse">
<stop stop-color="white"/>
<stop offset="1"/>
</linearGradient>
</defs>
</svg>
