<svg width="100" height="100" viewBox="0 0 100 100" fill="none" xmlns="http://www.w3.org/2000/svg">
<g filter="url(#filter0_d_216_38)">
<rect x="10" y="10" width="60" height="60" rx="30" fill="url(#paint0_linear_216_38)"/>
<g filter="url(#filter1_f_216_38)">
<rect x="10.7793" y="10.7792" width="58.4416" height="58.4416" rx="29.2208" fill="url(#paint1_linear_216_38)"/>
<rect x="11.0293" y="11.0292" width="57.9416" height="57.9416" rx="28.9708" stroke="url(#paint2_linear_216_38)" stroke-width="0.5"/>
</g>
<g filter="url(#filter2_f_216_38)">
<path fill-rule="evenodd" clip-rule="evenodd" d="M29.4804 28.1169C29.4804 30.1611 27.7361 31.8182 25.5843 31.8182C23.4326 31.8182 21.6882 30.1611 21.6882 28.1169C21.6882 26.0727 23.4326 24.4156 25.5843 24.4156C27.7361 24.4156 29.4804 26.0727 29.4804 28.1169ZM21.6882 57.9221H28.8682V33.7662H21.6882V57.9221ZM48.0148 57.9221H55.1947V44.2813C55.1947 41.0178 54.436 38.694 52.9115 36.9621C51.3965 35.2325 49.4125 34.5441 46.9593 34.5441C43.7331 34.5441 41.3805 36.1818 39.9086 38.5974H39.7602L39.3222 33.7662H33.6548C33.7506 36.1818 33.6548 57.9221 33.6548 57.9221H40.8348V42.7957C41.4283 40.9188 42.6106 39.9815 44.475 39.9815C46.8277 39.9815 48.0148 41.6555 48.0148 45.018V57.9221Z" fill="#0B4C8C"/>
</g>
<mask id="path-5-inside-1_216_38" fill="white">
<path fill-rule="evenodd" clip-rule="evenodd" d="M32.5974 26.1688C32.5974 28.213 30.853 29.8701 28.7013 29.8701C26.5495 29.8701 24.8052 28.213 24.8052 26.1688C24.8052 24.1247 26.5495 22.4675 28.7013 22.4675C30.853 22.4675 32.5974 24.1247 32.5974 26.1688ZM24.8052 55.974H31.9851V31.8182H24.8052V55.974ZM51.1317 55.974H58.3117V42.3332C58.3117 39.0698 57.553 36.746 56.0284 35.014C54.5135 33.2844 52.5294 32.596 50.0763 32.596C46.8501 32.596 44.4974 34.2338 43.0255 36.6493H42.8771L42.4392 31.8182H36.7718C36.8675 34.2338 36.7718 55.974 36.7718 55.974H43.9517V40.8476C44.5453 38.9707 45.7276 38.0335 47.592 38.0335C49.9446 38.0335 51.1317 39.7075 51.1317 43.07V55.974Z"/>
</mask>
<path fill-rule="evenodd" clip-rule="evenodd" d="M32.5974 26.1688C32.5974 28.213 30.853 29.8701 28.7013 29.8701C26.5495 29.8701 24.8052 28.213 24.8052 26.1688C24.8052 24.1247 26.5495 22.4675 28.7013 22.4675C30.853 22.4675 32.5974 24.1247 32.5974 26.1688ZM24.8052 55.974H31.9851V31.8182H24.8052V55.974ZM51.1317 55.974H58.3117V42.3332C58.3117 39.0698 57.553 36.746 56.0284 35.014C54.5135 33.2844 52.5294 32.596 50.0763 32.596C46.8501 32.596 44.4974 34.2338 43.0255 36.6493H42.8771L42.4392 31.8182H36.7718C36.8675 34.2338 36.7718 55.974 36.7718 55.974H43.9517V40.8476C44.5453 38.9707 45.7276 38.0335 47.592 38.0335C49.9446 38.0335 51.1317 39.7075 51.1317 43.07V55.974Z" fill="white" fill-opacity="0.9"/>
<path d="M31.9851 55.974V56.474H32.4851V55.974H31.9851ZM24.8052 55.974H24.3052V56.474H24.8052V55.974ZM31.9851 31.8182H32.4851V31.3182H31.9851V31.8182ZM24.8052 31.8182V31.3182H24.3052V31.8182H24.8052ZM58.3117 55.974V56.474H58.8117V55.974H58.3117ZM51.1317 55.974H50.6317V56.474H51.1317V55.974ZM56.0284 35.014L55.6523 35.3434L55.6531 35.3444L56.0284 35.014ZM43.0255 36.6493V37.1493H43.3064L43.4525 36.9095L43.0255 36.6493ZM42.8771 36.6493L42.3792 36.6945L42.4204 37.1493H42.8771V36.6493ZM42.4392 31.8182L42.9371 31.773L42.8959 31.3182H42.4392V31.8182ZM36.7718 31.8182V31.3182H36.2516L36.2722 31.838L36.7718 31.8182ZM36.7718 55.974L36.2718 55.9718L36.2696 56.474H36.7718V55.974ZM43.9517 55.974V56.474H44.4517V55.974H43.9517ZM43.9517 40.8476L43.475 40.6969L43.4517 40.7705V40.8476H43.9517ZM28.7013 30.3701C31.1047 30.3701 33.0974 28.513 33.0974 26.1688H32.0974C32.0974 27.913 30.6014 29.3701 28.7013 29.3701V30.3701ZM24.3052 26.1688C24.3052 28.513 26.2979 30.3701 28.7013 30.3701V29.3701C26.8012 29.3701 25.3052 27.913 25.3052 26.1688H24.3052ZM28.7013 21.9675C26.2979 21.9675 24.3052 23.8247 24.3052 26.1688H25.3052C25.3052 24.4247 26.8012 22.9675 28.7013 22.9675V21.9675ZM33.0974 26.1688C33.0974 23.8247 31.1047 21.9675 28.7013 21.9675V22.9675C30.6014 22.9675 32.0974 24.4247 32.0974 26.1688H33.0974ZM31.9851 55.474H24.8052V56.474H31.9851V55.474ZM31.4851 31.8182V55.974H32.4851V31.8182H31.4851ZM24.8052 32.3182H31.9851V31.3182H24.8052V32.3182ZM25.3052 55.974V31.8182H24.3052V55.974H25.3052ZM58.3117 55.474H51.1317V56.474H58.3117V55.474ZM57.8117 42.3332V55.974H58.8117V42.3332H57.8117ZM55.6531 35.3444C57.0732 36.9576 57.8117 39.1491 57.8117 42.3332H58.8117C58.8117 38.9904 58.0328 36.5343 56.4038 34.6836L55.6531 35.3444ZM50.0763 33.096C52.4261 33.096 54.2562 33.7496 55.6523 35.3434L56.4046 34.6845C54.7707 32.8193 52.6328 32.096 50.0763 32.096V33.096ZM43.4525 36.9095C44.8469 34.6211 47.0486 33.096 50.0763 33.096V32.096C46.6515 32.096 44.1479 33.8465 42.5985 36.3892L43.4525 36.9095ZM42.8771 37.1493H43.0255V36.1493H42.8771V37.1493ZM41.9412 31.8633L42.3792 36.6945L43.3751 36.6042L42.9371 31.773L41.9412 31.8633ZM36.7718 32.3182H42.4392V31.3182H36.7718V32.3182ZM36.7718 55.974C37.2718 55.9762 37.2718 55.9761 37.2718 55.976C37.2718 55.9758 37.2718 55.9756 37.2718 55.9752C37.2718 55.9746 37.2718 55.9736 37.2718 55.9723C37.2718 55.9696 37.2718 55.9657 37.2718 55.9604C37.2719 55.95 37.272 55.9344 37.272 55.9137C37.2722 55.8725 37.2725 55.8113 37.2728 55.7314C37.2735 55.5716 37.2745 55.3368 37.2757 55.0372C37.2781 54.4379 37.2815 53.5792 37.2852 52.5412C37.2927 50.4651 37.3017 47.6718 37.3077 44.803C37.3196 39.0748 37.3198 33.0198 37.2714 31.7984L36.2722 31.838C36.3195 33.0321 36.3197 39.055 36.3077 44.8009C36.3017 47.6691 36.2927 50.4618 36.2852 52.5376C36.2815 53.5754 36.2781 54.434 36.2757 55.0331C36.2745 55.3327 36.2735 55.5674 36.2728 55.7272C36.2725 55.8071 36.2722 55.8682 36.2721 55.9094C36.272 55.93 36.2719 55.9456 36.2719 55.9561C36.2718 55.9613 36.2718 55.9652 36.2718 55.9679C36.2718 55.9692 36.2718 55.9702 36.2718 55.9708C36.2718 55.9712 36.2718 55.9714 36.2718 55.9716C36.2718 55.9717 36.2718 55.9718 36.7718 55.974ZM43.9517 55.474H36.7718V56.474H43.9517V55.474ZM43.4517 40.8476V55.974H44.4517V40.8476H43.4517ZM47.592 37.5335C46.573 37.5335 45.6964 37.7912 44.9883 38.3421C44.2838 38.89 43.7929 39.6917 43.475 40.6969L44.4285 40.9984C44.7042 40.1266 45.1011 39.5212 45.6023 39.1314C46.0998 38.7444 46.7465 38.5335 47.592 38.5335V37.5335ZM51.6317 43.07C51.6317 41.3451 51.33 39.9641 50.6529 39.0029C49.9533 38.0097 48.9029 37.5335 47.592 37.5335V38.5335C48.6337 38.5335 49.3532 38.8943 49.8353 39.5787C50.3399 40.2951 50.6317 41.4324 50.6317 43.07H51.6317ZM51.6317 55.974V43.07H50.6317V55.974H51.6317Z" fill="url(#paint3_linear_216_38)" mask="url(#path-5-inside-1_216_38)"/>
</g>
<defs>
<filter id="filter0_d_216_38" x="0" y="0" width="100" height="100" filterUnits="userSpaceOnUse" color-interpolation-filters="sRGB">
<feFlood flood-opacity="0" result="BackgroundImageFix"/>
<feColorMatrix in="SourceAlpha" type="matrix" values="0 0 0 0 0 0 0 0 0 0 0 0 0 0 0 0 0 0 127 0" result="hardAlpha"/>
<feOffset dx="10" dy="10"/>
<feGaussianBlur stdDeviation="10"/>
<feComposite in2="hardAlpha" operator="out"/>
<feColorMatrix type="matrix" values="0 0 0 0 0 0 0 0 0 0 0 0 0 0 0 0 0 0 0.56 0"/>
<feBlend mode="normal" in2="BackgroundImageFix" result="effect1_dropShadow_216_38"/>
<feBlend mode="normal" in="SourceGraphic" in2="effect1_dropShadow_216_38" result="shape"/>
</filter>
<filter id="filter1_f_216_38" x="5.7793" y="5.77924" width="68.4417" height="68.4416" filterUnits="userSpaceOnUse" color-interpolation-filters="sRGB">
<feFlood flood-opacity="0" result="BackgroundImageFix"/>
<feBlend mode="normal" in="SourceGraphic" in2="BackgroundImageFix" result="shape"/>
<feGaussianBlur stdDeviation="2.5" result="effect1_foregroundBlur_216_38"/>
</filter>
<filter id="filter2_f_216_38" x="11.6882" y="14.4156" width="53.5066" height="53.5065" filterUnits="userSpaceOnUse" color-interpolation-filters="sRGB">
<feFlood flood-opacity="0" result="BackgroundImageFix"/>
<feBlend mode="normal" in="SourceGraphic" in2="BackgroundImageFix" result="shape"/>
<feGaussianBlur stdDeviation="5" result="effect1_foregroundBlur_216_38"/>
</filter>
<linearGradient id="paint0_linear_216_38" x1="38.8312" y1="68.4416" x2="40" y2="13.3117" gradientUnits="userSpaceOnUse">
<stop stop-color="#004081"/>
<stop offset="1" stop-color="#5BA9F8"/>
</linearGradient>
<linearGradient id="paint1_linear_216_38" x1="40.0001" y1="17.2078" x2="40.0001" y2="62.7922" gradientUnits="userSpaceOnUse">
<stop stop-color="#0A66C2" stop-opacity="0.56"/>
<stop offset="1" stop-color="#0A66C2"/>
</linearGradient>
<linearGradient id="paint2_linear_216_38" x1="40.0001" y1="10.7792" x2="40.0001" y2="69.2208" gradientUnits="userSpaceOnUse">
<stop stop-color="#59ACFF"/>
<stop offset="1" stop-color="#013162"/>
</linearGradient>
<linearGradient id="paint3_linear_216_38" x1="41.5584" y1="22.4675" x2="41.5584" y2="55.974" gradientUnits="userSpaceOnUse">
<stop stop-color="white"/>
<stop offset="1" stop-color="white" stop-opacity="0"/>
</linearGradient>
</defs>
</svg>
