<svg width="100" height="100" viewBox="0 0 100 100" fill="none" xmlns="http://www.w3.org/2000/svg">
<g filter="url(#filter0_d_216_65)">
<rect x="10" y="10" width="60" height="60" rx="30" fill="url(#paint0_linear_216_65)"/>
<g filter="url(#filter1_f_216_65)">
<rect x="10.7793" y="10.7792" width="58.4416" height="58.4416" rx="29.2208" fill="url(#paint1_linear_216_65)"/>
<rect x="11.0293" y="11.0292" width="57.9416" height="57.9416" rx="28.9708" stroke="url(#paint2_linear_216_65)" stroke-width="0.5"/>
</g>
<g filter="url(#filter2_f_216_65)">
<path fill-rule="evenodd" clip-rule="evenodd" d="M45.3385 43.3257C44.9216 43.1181 42.8722 42.1146 42.49 41.976C42.108 41.8375 41.8301 41.7684 41.5522 42.1836C41.2743 42.5989 40.4754 43.5334 40.2322 43.8103C39.9891 44.0872 39.7459 44.1219 39.3291 43.9141C38.9122 43.7066 37.569 43.2685 35.9768 41.855C34.7377 40.755 33.901 39.3964 33.6579 38.9811C33.4147 38.5658 33.6319 38.3413 33.8406 38.1344C34.0282 37.9485 34.2575 37.6499 34.4659 37.4076C34.6744 37.1654 34.7438 36.9922 34.8828 36.7155C35.0217 36.4386 34.9523 36.1964 34.8479 35.9887C34.7438 35.7811 33.9102 33.739 33.5628 32.9082C33.2244 32.0994 32.8807 32.209 32.6249 32.1961C32.382 32.1841 32.1038 32.1816 31.8259 32.1816C31.5481 32.1816 31.0964 32.2854 30.7143 32.7006C30.3322 33.1159 29.2554 34.1197 29.2554 36.1616C29.2554 38.2037 30.749 40.1763 30.9575 40.4532C31.1659 40.7301 33.8969 44.9204 38.0786 46.7174C39.0731 47.1449 39.8496 47.4002 40.455 47.5913C41.4536 47.9071 42.3623 47.8626 43.0806 47.7557C43.8815 47.6367 45.5469 46.7522 45.8943 45.7832C46.2416 44.8139 46.2416 43.9834 46.1374 43.8103C46.0332 43.6373 45.7554 43.5334 45.3385 43.3257ZM37.7325 53.6613H37.7269C35.2386 53.6603 32.7982 52.995 30.6693 51.7377L30.1629 51.4386L24.9148 52.8088L26.3156 47.7163L25.9859 47.1942C24.5978 44.997 23.8647 42.4576 23.8658 39.85C23.8689 32.2413 30.0894 26.051 37.738 26.051C41.4417 26.0523 44.9233 27.4896 47.5413 30.0981C50.1594 32.7065 51.6003 36.1738 51.5988 39.8611C51.5957 47.4704 45.3753 53.6613 37.7325 53.6613ZM49.5339 28.116C46.3841 24.9777 42.1953 23.2486 37.7323 23.2468C28.5367 23.2468 21.0527 30.6946 21.049 39.8489C21.0478 42.7753 21.8159 45.6315 23.276 48.1495L20.9092 56.7533L29.7531 54.4444C32.1899 55.7672 34.9335 56.4644 37.7257 56.4653H37.7326C46.9272 56.4653 54.4119 49.0167 54.4157 39.8622C54.4174 35.4258 52.6836 31.2543 49.5339 28.116Z" fill="#008F36"/>
</g>
<mask id="path-5-inside-1_216_65" fill="white">
<path fill-rule="evenodd" clip-rule="evenodd" d="M48.4554 42.5465C48.0386 42.3389 45.9891 41.3354 45.607 41.1968C45.2249 41.0583 44.9471 40.9892 44.6691 41.4044C44.3913 41.8197 43.5923 42.7542 43.3492 43.0311C43.106 43.3079 42.8629 43.3427 42.4461 43.1349C42.0292 42.9273 40.686 42.4893 39.0938 41.0758C37.8546 39.9757 37.0179 38.6172 36.7748 38.2019C36.5316 37.7865 36.7488 37.562 36.9575 37.3552C37.1452 37.1693 37.3745 36.8706 37.5828 36.6283C37.7913 36.3862 37.8608 36.213 37.9997 35.9363C38.1386 35.6593 38.0692 35.4171 37.9649 35.2095C37.8608 35.0019 37.0271 32.9598 36.6797 32.129C36.3413 31.3202 35.9977 31.4297 35.7418 31.4169C35.499 31.4049 35.2207 31.4024 34.9429 31.4024C34.665 31.4024 34.2133 31.5062 33.8312 31.9214C33.4492 32.3367 32.3723 33.3405 32.3723 35.3823C32.3723 37.4245 33.866 39.3971 34.0744 39.674C34.2828 39.9509 37.0138 44.1412 41.1956 45.9382C42.19 46.3657 42.9666 46.6209 43.5719 46.8121C44.5705 47.1279 45.4792 47.0834 46.1975 46.9765C46.9984 46.8575 48.6638 45.973 49.0112 45.004C49.3585 44.0347 49.3585 43.2041 49.2544 43.0311C49.1502 42.858 48.8723 42.7542 48.4554 42.5465ZM40.8495 52.8821H40.8438C38.3556 52.8811 35.9152 52.2158 33.7862 50.9585L33.2798 50.6594L28.0317 52.0295L29.4325 46.9371L29.1029 46.4149C27.7148 44.2178 26.9816 41.6783 26.9827 39.0708C26.9858 31.462 33.2063 25.2718 40.855 25.2718C44.5587 25.273 48.0402 26.7104 50.6583 29.3189C53.2763 31.9273 54.7172 35.3945 54.7158 39.0819C54.7126 46.6912 48.4922 52.8821 40.8495 52.8821ZM52.6508 27.3368C49.501 24.1985 45.3122 22.4694 40.8493 22.4675C31.6537 22.4675 24.1696 29.9153 24.1659 39.0697C24.1647 41.9961 24.9329 44.8523 26.3929 47.3703L24.0261 55.974L32.8701 53.6652C35.3069 54.988 38.0504 55.6852 40.8427 55.6861H40.8495C50.0441 55.6861 57.5288 48.2375 57.5326 39.083C57.5343 34.6466 55.8006 30.4751 52.6508 27.3368Z"/>
</mask>
<path fill-rule="evenodd" clip-rule="evenodd" d="M48.4554 42.5465C48.0386 42.3389 45.9891 41.3354 45.607 41.1968C45.2249 41.0583 44.9471 40.9892 44.6691 41.4044C44.3913 41.8197 43.5923 42.7542 43.3492 43.0311C43.106 43.3079 42.8629 43.3427 42.4461 43.1349C42.0292 42.9273 40.686 42.4893 39.0938 41.0758C37.8546 39.9757 37.0179 38.6172 36.7748 38.2019C36.5316 37.7865 36.7488 37.562 36.9575 37.3552C37.1452 37.1693 37.3745 36.8706 37.5828 36.6283C37.7913 36.3862 37.8608 36.213 37.9997 35.9363C38.1386 35.6593 38.0692 35.4171 37.9649 35.2095C37.8608 35.0019 37.0271 32.9598 36.6797 32.129C36.3413 31.3202 35.9977 31.4297 35.7418 31.4169C35.499 31.4049 35.2207 31.4024 34.9429 31.4024C34.665 31.4024 34.2133 31.5062 33.8312 31.9214C33.4492 32.3367 32.3723 33.3405 32.3723 35.3823C32.3723 37.4245 33.866 39.3971 34.0744 39.674C34.2828 39.9509 37.0138 44.1412 41.1956 45.9382C42.19 46.3657 42.9666 46.6209 43.5719 46.8121C44.5705 47.1279 45.4792 47.0834 46.1975 46.9765C46.9984 46.8575 48.6638 45.973 49.0112 45.004C49.3585 44.0347 49.3585 43.2041 49.2544 43.0311C49.1502 42.858 48.8723 42.7542 48.4554 42.5465ZM40.8495 52.8821H40.8438C38.3556 52.8811 35.9152 52.2158 33.7862 50.9585L33.2798 50.6594L28.0317 52.0295L29.4325 46.9371L29.1029 46.4149C27.7148 44.2178 26.9816 41.6783 26.9827 39.0708C26.9858 31.462 33.2063 25.2718 40.855 25.2718C44.5587 25.273 48.0402 26.7104 50.6583 29.3189C53.2763 31.9273 54.7172 35.3945 54.7158 39.0819C54.7126 46.6912 48.4922 52.8821 40.8495 52.8821ZM52.6508 27.3368C49.501 24.1985 45.3122 22.4694 40.8493 22.4675C31.6537 22.4675 24.1696 29.9153 24.1659 39.0697C24.1647 41.9961 24.9329 44.8523 26.3929 47.3703L24.0261 55.974L32.8701 53.6652C35.3069 54.988 38.0504 55.6852 40.8427 55.6861H40.8495C50.0441 55.6861 57.5288 48.2375 57.5326 39.083C57.5343 34.6466 55.8006 30.4751 52.6508 27.3368Z" fill="white" fill-opacity="0.9"/>
<path d="M45.607 41.1968L45.7775 40.7267L45.7774 40.7267L45.607 41.1968ZM44.6691 41.4044L44.2536 41.1263L44.2536 41.1263L44.6691 41.4044ZM43.3492 43.0311L42.9735 42.7011L42.9735 42.7012L43.3492 43.0311ZM42.4461 43.1349L42.6692 42.6874L42.6689 42.6873L42.4461 43.1349ZM39.0938 41.0758L39.4257 40.7018L39.4257 40.7018L39.0938 41.0758ZM36.7748 38.2019L37.2063 37.9493L37.2063 37.9492L36.7748 38.2019ZM36.9575 37.3552L36.6056 37L36.6056 37.0001L36.9575 37.3552ZM37.5828 36.6283L37.2039 36.3021L37.2037 36.3023L37.5828 36.6283ZM37.9997 35.9363L38.4466 36.1606L38.4466 36.1605L37.9997 35.9363ZM37.9649 35.2095L37.5179 35.4336L37.5181 35.434L37.9649 35.2095ZM36.6797 32.129L37.141 31.9361L37.141 31.936L36.6797 32.129ZM35.7418 31.4169L35.7669 30.9175L35.7665 30.9175L35.7418 31.4169ZM33.8312 31.9214L33.4633 31.5828L33.4632 31.5829L33.8312 31.9214ZM41.1956 45.9382L41.3931 45.4788L41.393 45.4788L41.1956 45.9382ZM43.5719 46.8121L43.7227 46.3354L43.7225 46.3353L43.5719 46.8121ZM46.1975 46.9765L46.1241 46.4819L46.124 46.4819L46.1975 46.9765ZM49.0112 45.004L49.4819 45.1727L49.4819 45.1726L49.0112 45.004ZM40.8438 52.8821L40.8436 53.3821H40.8438V52.8821ZM33.7862 50.9585L33.5319 51.389L33.5319 51.389L33.7862 50.9585ZM33.2798 50.6594L33.5341 50.2289L33.3549 50.1231L33.1535 50.1756L33.2798 50.6594ZM28.0317 52.0295L27.5496 51.8969L27.3199 52.7321L28.158 52.5133L28.0317 52.0295ZM29.4325 46.9371L29.9146 47.0697L29.9732 46.8568L29.8553 46.6702L29.4325 46.9371ZM29.1029 46.4149L29.5257 46.148L29.5256 46.1479L29.1029 46.4149ZM26.9827 39.0708L27.4827 39.071V39.071L26.9827 39.0708ZM40.855 25.2718L40.8551 24.7718H40.855V25.2718ZM50.6583 29.3189L51.0112 28.9647L50.6583 29.3189ZM54.7158 39.0819L55.2158 39.0821V39.0821L54.7158 39.0819ZM40.8493 22.4675L40.8495 21.9675H40.8493V22.4675ZM24.1659 39.0697L23.6659 39.0695V39.0695L24.1659 39.0697ZM26.3929 47.3703L26.875 47.5029L26.9306 47.3008L26.8255 47.1195L26.3929 47.3703ZM24.0261 55.974L23.544 55.8414L23.3143 56.6766L24.1524 56.4578L24.0261 55.974ZM32.8701 53.6652L33.1086 53.2258L32.935 53.1315L32.7438 53.1814L32.8701 53.6652ZM40.8427 55.6861L40.8425 56.1861H40.8427V55.6861ZM57.5326 39.083L58.0326 39.0832V39.0832L57.5326 39.083ZM48.6784 42.0989C48.4675 41.9939 47.8488 41.6901 47.2347 41.3951C46.6364 41.1076 45.9986 40.8069 45.7775 40.7267L45.4365 41.6668C45.5975 41.7252 46.1754 41.9956 46.8016 42.2964C47.4121 42.5897 48.0265 42.8914 48.2325 42.9941L48.6784 42.0989ZM45.7774 40.7267C45.6012 40.6629 45.3283 40.5636 45.0424 40.5962C44.7015 40.635 44.4467 40.8379 44.2536 41.1263L45.0846 41.6825C45.1302 41.6145 45.1589 41.5919 45.1658 41.587C45.168 41.5855 45.1615 41.5891 45.1556 41.5897C45.1555 41.5898 45.1602 41.5892 45.1717 41.5902C45.1835 41.5912 45.2009 41.5938 45.2256 41.5995C45.2782 41.6117 45.3431 41.6329 45.4366 41.6668L45.7774 40.7267ZM44.2536 41.1263C43.9976 41.509 43.2225 42.4177 42.9735 42.7011L43.7248 43.361C43.9622 43.0907 44.785 42.1304 45.0847 41.6825L44.2536 41.1263ZM42.9735 42.7012C42.8999 42.7849 42.8818 42.7709 42.9027 42.7684C42.9032 42.7683 42.8445 42.7749 42.6692 42.6874L42.2229 43.5823C42.4644 43.7027 42.7357 43.7958 43.0228 43.7611C43.3302 43.7239 43.5553 43.5541 43.7249 43.361L42.9735 42.7012ZM42.6689 42.6873C42.2032 42.4554 40.9531 42.0578 39.4257 40.7018L38.7618 41.4497C40.4189 42.9207 41.8552 43.3992 42.2232 43.5825L42.6689 42.6873ZM39.4257 40.7018C38.246 39.6545 37.441 38.3502 37.2063 37.9493L36.3433 38.4544C36.5948 38.8842 37.4633 40.2969 38.7618 41.4497L39.4257 40.7018ZM37.2063 37.9492C37.1715 37.8898 37.1676 37.8618 37.1674 37.86C37.1673 37.8591 37.1676 37.8617 37.1671 37.8665C37.1665 37.8712 37.1654 37.8744 37.1651 37.8752C37.1651 37.8754 37.1701 37.8621 37.1951 37.8312C37.2216 37.7986 37.2558 37.7636 37.3095 37.7103L36.6056 37.0001C36.5147 37.0901 36.323 37.2719 36.2283 37.5255C36.1156 37.8273 36.1617 38.1444 36.3433 38.4545L37.2063 37.9492ZM37.3094 37.7104C37.5145 37.5072 37.7857 37.1592 37.9619 36.9544L37.2037 36.3023C36.9632 36.582 36.7758 36.8314 36.6056 37L37.3094 37.7104ZM37.9617 36.9546C38.22 36.6546 38.3192 36.4143 38.4466 36.1606L37.5529 35.7119C37.4024 36.0117 37.3627 36.1177 37.2039 36.3021L37.9617 36.9546ZM38.4466 36.1605C38.6883 35.6788 38.5474 35.2551 38.4117 34.985L37.5181 35.434C37.5567 35.5108 37.5723 35.5626 37.5764 35.6004C37.5795 35.6296 37.5776 35.6625 37.5528 35.7121L38.4466 36.1605ZM38.4118 34.9854C38.4119 34.9854 38.4114 34.9845 38.4104 34.9823C38.4094 34.9803 38.4081 34.9775 38.4064 34.9739C38.403 34.9666 38.3987 34.9571 38.3934 34.9453C38.3827 34.9215 38.3692 34.8907 38.353 34.8531C38.3205 34.7781 38.2788 34.6798 38.2299 34.5636C38.1323 34.3314 38.0079 34.0319 37.8756 33.7118C37.6115 33.0735 37.3152 32.3526 37.141 31.9361L36.2184 32.3219C36.3916 32.7362 36.6858 33.4517 36.9515 34.094C37.2099 34.7189 37.4552 35.3084 37.5179 35.4336L38.4118 34.9854ZM37.141 31.936C36.9496 31.4786 36.7132 31.1727 36.3926 31.022C36.1135 30.8907 35.7722 30.9178 35.7669 30.9175L35.7168 31.9163C35.7657 31.9187 35.8147 31.9181 35.8444 31.918C35.8794 31.9178 35.9009 31.9179 35.9204 31.919C35.9543 31.9209 35.9635 31.9252 35.9671 31.9269C35.9698 31.9282 35.9946 31.9395 36.0376 31.9926C36.0832 32.0491 36.1461 32.1491 36.2185 32.322L37.141 31.936ZM35.7665 30.9175C35.5106 30.9049 35.222 30.9024 34.9429 30.9024V31.9024C35.2194 31.9024 35.4873 31.9049 35.7172 31.9163L35.7665 30.9175ZM34.9429 30.9024C34.5512 30.9024 33.9564 31.0471 33.4633 31.5828L34.1991 32.26C34.4703 31.9653 34.7789 31.9024 34.9429 31.9024V30.9024ZM33.4632 31.5829C33.0791 32.0005 31.8723 33.1311 31.8723 35.3823H32.8723C32.8723 33.5499 33.8192 32.673 34.1992 32.2599L33.4632 31.5829ZM31.8723 35.3823C31.8723 36.5165 32.284 37.6023 32.6998 38.4173C33.1192 39.2394 33.5655 39.8293 33.6749 39.9747L34.4739 39.3733C34.3749 39.2417 33.9701 38.7068 33.5906 37.9629C33.2074 37.2119 32.8723 36.2904 32.8723 35.3823H31.8723ZM33.6749 39.9747C33.8567 40.2161 36.6686 44.5371 40.9982 46.3976L41.393 45.4788C37.359 43.7453 34.709 39.6857 34.4739 39.3733L33.6749 39.9747ZM40.9981 46.3975C42.0144 46.8344 42.8087 47.0954 43.4214 47.2889L43.7225 46.3353C43.1245 46.1465 42.3657 45.897 41.3931 45.4788L40.9981 46.3975ZM43.4212 47.2888C44.5189 47.636 45.5114 47.5841 46.2711 47.471L46.124 46.4819C45.4471 46.5826 44.6221 46.6198 43.7227 46.3354L43.4212 47.2888ZM46.271 47.471C46.7648 47.3977 47.4485 47.1099 48.0433 46.7305C48.6258 46.359 49.2499 45.8197 49.4819 45.1727L48.5406 44.8352C48.4251 45.1572 48.0428 45.5447 47.5055 45.8874C46.9806 46.2223 46.4311 46.4363 46.1241 46.4819L46.271 47.471ZM49.4819 45.1726C49.6703 44.6469 49.7662 44.1548 49.8002 43.7621C49.8172 43.5664 49.8195 43.3877 49.8076 43.2369C49.7979 43.1135 49.7741 42.9249 49.6827 42.7732L48.826 43.289C48.7867 43.2237 48.8019 43.2039 48.8107 43.3152C48.8173 43.3991 48.8174 43.5211 48.804 43.6757C48.7772 43.984 48.6995 44.3917 48.5405 44.8353L49.4819 45.1726ZM49.6827 42.7732C49.5569 42.5642 49.3561 42.4418 49.2119 42.363C49.0687 42.2848 48.8579 42.1884 48.6784 42.099L48.2325 42.994C48.4698 43.1123 48.6064 43.1717 48.7324 43.2406C48.8574 43.3088 48.8476 43.3249 48.826 43.289L49.6827 42.7732ZM40.8495 52.3821H40.8438V53.3821H40.8495V52.3821ZM40.844 52.3821C38.4446 52.3811 36.092 51.7395 34.0405 50.528L33.5319 51.389C35.7384 52.6921 38.2666 53.3811 40.8436 53.3821L40.844 52.3821ZM34.0405 50.528L33.5341 50.2289L33.0255 51.0899L33.5319 51.389L34.0405 50.528ZM33.1535 50.1756L27.9054 51.5457L28.158 52.5133L33.4061 51.1432L33.1535 50.1756ZM28.5138 52.1621L29.9146 47.0697L28.9504 46.8045L27.5496 51.8969L28.5138 52.1621ZM29.8553 46.6702L29.5257 46.148L28.6801 46.6818L29.0097 47.204L29.8553 46.6702ZM29.5256 46.1479C28.1882 44.031 27.4817 41.5843 27.4827 39.071L26.4827 39.0705C26.4816 41.7724 27.2414 44.4046 28.6802 46.682L29.5256 46.1479ZM27.4827 39.071C27.4857 31.7405 33.4801 25.7718 40.855 25.7718V24.7718C32.9325 24.7718 26.4859 31.1835 26.4827 39.0705L27.4827 39.071ZM40.8548 25.7718C44.4266 25.773 47.7812 27.1581 50.3054 29.6731L51.0112 28.9647C48.2992 26.2626 44.6908 24.7731 40.8551 24.7718L40.8548 25.7718ZM50.3054 29.6731C52.8294 32.1879 54.2172 35.5277 54.2158 39.0817L55.2158 39.0821C55.2173 35.2614 53.7232 31.6667 51.0112 28.9647L50.3054 29.6731ZM54.2158 39.0817C54.2128 46.4129 48.2182 52.3821 40.8495 52.3821V53.3821C48.7662 53.3821 55.2125 46.9695 55.2158 39.0821L54.2158 39.0817ZM53.0037 26.9826C49.7599 23.7506 45.4442 21.9694 40.8495 21.9675L40.8491 22.9675C45.1803 22.9693 49.2421 24.6463 52.2979 27.691L53.0037 26.9826ZM40.8493 21.9675C31.3797 21.9675 23.6698 29.637 23.6659 39.0695L24.6659 39.0699C24.6695 30.1937 31.9276 22.9675 40.8493 22.9675V21.9675ZM23.6659 39.0695C23.6647 42.0839 24.456 45.0267 25.9604 47.6211L26.8255 47.1195C25.4097 44.6779 24.6648 41.9083 24.6659 39.0699L23.6659 39.0695ZM25.9108 47.2377L23.544 55.8414L24.5082 56.1066L26.875 47.5029L25.9108 47.2377ZM24.1524 56.4578L32.9964 54.149L32.7438 53.1814L23.8998 55.4902L24.1524 56.4578ZM32.6315 54.1046C35.1418 55.4673 37.9673 56.1851 40.8425 56.1861L40.8428 55.1861C38.1336 55.1852 35.472 54.5087 33.1086 53.2258L32.6315 54.1046ZM40.8427 56.1861H40.8495V55.1861H40.8427V56.1861ZM40.8495 56.1861C50.3181 56.1861 58.0287 48.5158 58.0326 39.0832L57.0326 39.0828C57.0289 47.9592 49.7701 55.1861 40.8495 55.1861V56.1861ZM58.0326 39.0832C58.0344 34.5134 56.2474 30.2145 53.0037 26.9826L52.2979 27.691C55.3537 30.7357 57.0343 34.7797 57.0326 39.0828L58.0326 39.0832Z" fill="url(#paint3_linear_216_65)" mask="url(#path-5-inside-1_216_65)"/>
</g>
<defs>
<filter id="filter0_d_216_65" x="0" y="0" width="100" height="100" filterUnits="userSpaceOnUse" color-interpolation-filters="sRGB">
<feFlood flood-opacity="0" result="BackgroundImageFix"/>
<feColorMatrix in="SourceAlpha" type="matrix" values="0 0 0 0 0 0 0 0 0 0 0 0 0 0 0 0 0 0 127 0" result="hardAlpha"/>
<feOffset dx="10" dy="10"/>
<feGaussianBlur stdDeviation="10"/>
<feComposite in2="hardAlpha" operator="out"/>
<feColorMatrix type="matrix" values="0 0 0 0 0 0 0 0 0 0 0 0 0 0 0 0 0 0 0.56 0"/>
<feBlend mode="normal" in2="BackgroundImageFix" result="effect1_dropShadow_216_65"/>
<feBlend mode="normal" in="SourceGraphic" in2="effect1_dropShadow_216_65" result="shape"/>
</filter>
<filter id="filter1_f_216_65" x="5.7793" y="5.77924" width="68.4417" height="68.4416" filterUnits="userSpaceOnUse" color-interpolation-filters="sRGB">
<feFlood flood-opacity="0" result="BackgroundImageFix"/>
<feBlend mode="normal" in="SourceGraphic" in2="BackgroundImageFix" result="shape"/>
<feGaussianBlur stdDeviation="2.5" result="effect1_foregroundBlur_216_65"/>
</filter>
<filter id="filter2_f_216_65" x="10.9092" y="13.2468" width="53.5066" height="53.5065" filterUnits="userSpaceOnUse" color-interpolation-filters="sRGB">
<feFlood flood-opacity="0" result="BackgroundImageFix"/>
<feBlend mode="normal" in="SourceGraphic" in2="BackgroundImageFix" result="shape"/>
<feGaussianBlur stdDeviation="5" result="effect1_foregroundBlur_216_65"/>
</filter>
<linearGradient id="paint0_linear_216_65" x1="38.8312" y1="68.4416" x2="40" y2="13.3117" gradientUnits="userSpaceOnUse">
<stop stop-color="#00A83F"/>
<stop offset="1" stop-color="#52EF8C"/>
</linearGradient>
<linearGradient id="paint1_linear_216_65" x1="40.0001" y1="17.2078" x2="40.0001" y2="62.7922" gradientUnits="userSpaceOnUse">
<stop stop-color="#25D366" stop-opacity="0.72"/>
<stop offset="1" stop-color="#25D366"/>
</linearGradient>
<linearGradient id="paint2_linear_216_65" x1="40.0001" y1="10.7792" x2="40.0001" y2="69.2208" gradientUnits="userSpaceOnUse">
<stop stop-color="#D6FFE5"/>
<stop offset="1" stop-color="#008D35"/>
</linearGradient>
<linearGradient id="paint3_linear_216_65" x1="40.7794" y1="22.4675" x2="40.7794" y2="55.974" gradientUnits="userSpaceOnUse">
<stop stop-color="white"/>
<stop offset="1" stop-color="white" stop-opacity="0"/>
</linearGradient>
</defs>
</svg>
